Coordinates
version=1
nRows=10
nColumns=40
inDegrees=yes

Units are S.I. units (second, meters, Newtons, ...)
Angles are in degrees.

endheader
time	pelvis_tilt	pelvis_list	pelvis_rotation	pelvis_tx	pelvis_ty	pelvis_tz	hip_flexion_r	hip_adduction_r	hip_rotation_r	knee_angle_r	knee_angle_r_beta	ankle_angle_r	subtalar_angle_r	mtp_angle_r	hip_flexion_l	hip_adduction_l	hip_rotation_l	knee_angle_l	knee_angle_l_beta	ankle_angle_l	subtalar_angle_l	mtp_angle_l	lumbar_extension	lumbar_bending	lumbar_rotation	arm_flex_r	arm_add_r	arm_rot_r	elbow_flex_r	pro_sup_r	wrist_flex_r	wrist_dev_r	arm_flex_l	arm_add_l	arm_rot_l	elbow_flex_l	pro_sup_l	wrist_flex_l	wrist_dev_l
      0.00000000	     -2.94505574	     -0.74024798	      0.88594078	     -0.95951090	      0.93340663	      1.41415385	     26.29516069	    -10.10167822	    -23.20343133	    -13.78347478	     -0.24056702	     -1.32182442	      5.14716066	      2.35276450	     -5.68183846	     -0.00568507	     10.11286700	    -13.55096169	     -0.23650890	     10.11744251	     -1.56135360	    -16.93095709	     -5.96802272	      4.26655002	     -6.73832707	      1.75514099	    -10.58651740	    -33.76450297	     16.44276336	     89.95437384	      0.00000000	      0.00000000	     16.03295586	     11.80886496	     -8.85441268	     39.34721784	     89.95437384	      0.00000000	      0.00000000
      0.01000000	     -2.77957377	     -0.94404907	      1.16641748	     -0.95033128	      0.93241130	      1.41712404	     26.16232205	     -9.73529925	    -22.79285092	    -14.69047211	     -0.25639711	     -1.35426310	      4.67773380	      2.32704334	     -6.33981509	      0.51145124	      9.86922659	    -13.80507712	     -0.24094405	     10.39773708	     -1.60547568	    -16.80674546	     -5.94193373	      4.46674741	     -6.81846002	      1.51248694	    -10.66500353	    -33.88162112	     15.92900766	     89.95437384	      0.00000000	      0.00000000	     15.68763197	     11.79581865	     -8.83519354	     39.30725587	     89.95437384	      0.00000000	      0.00000000
      0.02000000	     -2.84028168	     -0.84273637	      1.43962282	     -0.94143667	      0.93106008	      1.41999844	     26.15217622	     -9.63061019	    -22.28694760	    -15.31687814	     -0.26732995	     -1.45897117	      4.43524054	      2.28810703	     -6.55920219	      0.70898664	      9.69005572	    -14.37468565	     -0.25088559	     10.19909385	     -1.53468261	    -16.46126386	     -5.71692091	      4.31910029	     -6.86487293	      0.94971728	    -10.63676763	    -33.80514889	     16.02985428	     89.95437384	      0.00000000	      0.00000000	     15.20217307	     11.83497682	     -8.77004445	     39.36411922	     89.95437384	      0.00000000	      0.00000000
      0.03000000	     -2.07822474	     -1.36208073	      1.84346358	     -0.93172257	      0.93111083	      1.42343508	     25.08494065	     -8.82476518	    -22.12654778	    -16.14326936	     -0.28175320	     -1.19349119	      3.00793856	      2.34381220	     -7.88992400	      1.72373729	      9.77293293	    -14.62320847	     -0.25522314	     10.55870494	     -1.97283095	    -16.70559177	     -6.37123975	      4.85504390	     -7.06050203	      1.10658739	    -10.66923856	    -34.92036362	     15.15085802	     89.95437384	      0.00000000	      0.00000000	     14.73086699	     11.90752111	     -8.73263113	     39.50369820	     89.95437384	      0.00000000	      0.00000000
      0.04000000	     -2.11489200	     -1.39367832	      2.17411805	     -0.92251846	      0.92992647	      1.42653388	     24.95217267	     -8.59224906	    -21.30167044	    -16.83531123	     -0.29383161	     -1.75776562	      3.02369733	      2.37714224	     -8.19559685	      2.11467211	      9.64250967	    -15.06000103	     -0.26284660	     10.48915952	     -1.97004116	    -16.44774379	     -6.12931690	      4.86030219	     -7.24709658	      0.69057678	    -10.64646445	    -34.90164138	     15.12008462	     89.95437384	      0.00000000	      0.00000000	     14.18061407	     11.96509246	     -8.77152067	     39.30263382	     89.95437384	      0.00000000	      0.00000000
      0.05000000	     -1.51071729	     -2.12461737	      2.30258395	     -0.91278847	      0.93010293	      1.43069940	     23.79491375	     -7.36177372	    -20.75764949	    -16.45813442	     -0.28724863	     -4.64911502	      2.09198698	      2.64547532	     -9.29743673	      3.40973236	     10.10041476	    -15.43744140	     -0.26943418	     10.36339162	     -2.82495428	    -16.88548587	     -6.61737292	      5.61228949	     -6.98228343	      0.68581347	    -10.69315492	    -36.08657494	     14.46234456	     89.95437384	      0.00000000	      0.00000000	     13.85016313	     11.84088829	     -8.74446231	     38.89772629	     89.95437384	      0.00000000	      0.00000000
      0.06000000	     -1.49990852	     -2.18463532	      2.42250672	     -0.90394087	      0.92943209	      1.43431794	     23.88953936	     -7.21292132	    -20.07595887	    -17.27130113	     -0.30144107	     -5.68113429	      2.19636124	      2.67537872	     -9.59071220	      3.81431706	     10.03692104	    -16.01677747	     -0.27954550	     10.25214082	     -2.76025200	    -16.64623580	     -6.51520366	      5.62880833	     -6.95365548	      0.49390398	    -10.69566170	    -35.97047937	     14.24962952	     89.95437384	      0.00000000	      0.00000000	     13.30634960	     11.89148431	     -8.69284695	     38.58227422	     89.95437384	      0.00000000	      0.00000000
      0.07000000	     -1.42290289	     -2.37377172	      2.48904536	     -0.89504256	      0.92908310	      1.43795186	     24.12064270	     -7.09094244	    -20.00301869	    -18.67681080	     -0.32597184	     -6.24676050	      1.67245290	      2.51409294	     -9.86881313	      4.35671682	     10.06051295	    -16.79769036	     -0.29317500	     10.09067707	     -2.54806838	    -16.40021816	     -6.50613628	      5.80410344	     -6.80852118	      0.38251612	    -10.76757041	    -35.95140039	     13.86999091	     89.95437384	      0.00000000	      0.00000000	     12.88482314	     11.75015368	     -8.49470919	     38.00250734	     89.95437384	      0.00000000	      0.00000000
      0.08000000	     -1.69876227	     -2.61274412	      2.61620689	     -0.88624099	      0.92838426	      1.44189254	     24.85090279	     -6.77209750	    -19.45555464	    -20.41273792	     -0.35626949	     -6.65516696	     -0.71986950	      1.69369522	     -9.56941100	      5.05152168	     10.21028117	    -17.86677711	     -0.31183409	      9.88753795	     -2.69495178	    -16.44253755	     -6.09720060	      5.99877806	     -6.77698813	      0.36001596	    -10.73043335	    -36.70936860	     13.44471596	     89.95437384	      0.00000000	      0.00000000	     12.24108264	     11.64736505	     -8.00253442	     37.49522918	     89.95437384	      0.00000000	      0.00000000
      0.09000000	     -1.60608332	     -2.77250112	      2.76139378	     -0.87696447	      0.92857780	      1.44565147	     24.96007179	     -6.43719324	    -18.72824025	    -21.92883085	     -0.38273030	     -6.46373450	     -0.93791443	      1.51877532	     -9.78323565	      5.57546815	      9.89629105	    -18.74424822	     -0.32714885	      9.35940541	     -2.37038095	    -15.95549172	     -6.08648773	      6.12808078	     -6.73971545	      0.06397806	    -10.67784892	    -36.45401756	     13.56684534	     89.95437384	      0.00000000	      0.00000000	     11.59962087	     11.64207314	     -7.88660988	     36.98436043	     89.95437384	      0.00000000	      0.00000000
